<?xml version="1.0" encoding="UTF-8"?>
<svg width="23px" height="22px" viewBox="0 0 23 22" version="1.1" xmlns="http://www.w3.org/2000/svg" xmlns:xlink="http://www.w3.org/1999/xlink">
    <!-- Generator: Sketch 59 (86127) - https://sketch.com -->
    <title>social/instagram</title>
    <desc>Created with Sketch.</desc>
    <g id="Design" stroke="none" stroke-width="1" fill="none" fill-rule="evenodd">
        <g id="Artboard" transform="translate(-222.000000, -152.000000)" fill="#2D354C">
            <g id="social/instagram" transform="translate(220.000000, 150.000000)">
                <path d="M18.5954,2 C21.9433,2 24.6667,4.7236 24.6667,8.07117 L24.6667,8.07117 L24.6667,17.9287 C24.6667,21.2763 21.9433,23.9999 18.5954,23.9999 L18.5954,23.9999 L8.73791,23.9999 C5.39034,23.9999 2.66687,21.2764 2.66687,17.9287 L2.66687,17.9287 L2.66687,8.07117 C2.66687,4.7236 5.39034,2 8.73791,2 L8.73791,2 Z M18.5954,3.95193 L8.73791,3.95193 C6.46664,3.95193 4.61881,5.7999 4.61881,8.07117 L4.61881,8.07117 L4.61881,17.9287 C4.61881,20.2001 6.46664,22.0481 8.73791,22.0479 L8.73791,22.0479 L18.5956,22.0479 C20.867,22.0479 22.7149,20.2001 22.7149,17.9287 L22.7149,17.9287 L22.7149,8.07117 C22.7149,5.7999 20.8668,3.95193 18.5954,3.95193 L18.5954,3.95193 Z M13.6669,7.33142 C16.7927,7.33142 19.3357,9.8744 19.3357,13.0002 C19.3357,16.1259 16.7927,18.6688 13.6669,18.6688 C10.54103,18.6688 7.99805,16.1259 7.99805,13.0002 C7.99805,9.8744 10.54103,7.33142 13.6669,7.33142 Z M13.6669,9.28323 C11.61732,9.28323 9.94998,10.95057 9.94998,13.0001 C9.94998,15.0495 11.61746,16.7167 13.6669,16.7167 C15.7163,16.7167 17.3837,15.0495 17.3837,13.0001 C17.3837,10.95057 15.7164,9.28323 13.6669,9.28323 Z M19.5734,5.67627 C19.9508,5.67627 20.3203,5.82852 20.5858,6.09529 C20.8526,6.36075 21.0048,6.73031 21.0048,7.10769 C21.0048,7.48376 20.8526,7.85333 20.5858,8.12009 C20.319,8.38556 19.9508,8.53911 19.5734,8.53911 C19.1973,8.53911 18.8277,8.38556 18.5623,8.12009 C18.2955,7.85333 18.142,7.48389 18.142,7.10769 C18.142,6.73031 18.2954,6.36075 18.5623,6.09529 C18.8279,5.82852 19.1973,5.67627 19.5734,5.67627 Z" id="Combined-Shape"></path>
            </g>
        </g>
    </g>
</svg>